<!DOCTYPE svg PUBLIC "-//W3C//DTD SVG 1.1//EN" "http://www.w3.org/Graphics/SVG/1.1/DTD/svg11.dtd">
<!-- Uploaded to: SVG Repo, www.svgrepo.com, Transformed by: SVG Repo Mixer Tools -->
<svg fill="#ffffff" width="800px" height="800px" viewBox="0 0 24 24" xmlns="http://www.w3.org/2000/svg" id="sign-out-alt" class="icon glyph" stroke="#ffffff">
<g id="SVGRepo_bgCarrier" stroke-width="0"/>
<g id="SVGRepo_tracerCarrier" stroke-linecap="round" stroke-linejoin="round"/>
<g id="SVGRepo_iconCarrier">
<path d="M11.41,13H22a10,10,0,1,1,0-2H11.41l2.3-2.29a1,1,0,1,0-1.42-1.42l-4,4a1,1,0,0,0-.21.32.37.37,0,0,0,0,.14.85.85,0,0,0,0,.5.37.37,0,0,0,0,.14,1,1,0,0,0,.21.32l4,4a1,1,0,0,0,1.42,0,1,1,0,0,0,0-1.42Z"/>
</g>
</svg>